<?xml version="1.0" encoding="UTF-8" standalone="no"?>
<!DOCTYPE svg PUBLIC "-//W3C//DTD SVG 1.1//EN" "http://www.w3.org/Graphics/SVG/1.1/DTD/svg11.dtd">
<svg width="100%" height="100%" viewBox="0 0 1280 800" version="1.1" xmlns="http://www.w3.org/2000/svg" xmlns:xlink="http://www.w3.org/1999/xlink" xml:space="preserve" xmlns:serif="http://www.serif.com/" style="fill-rule:evenodd;clip-rule:evenodd;stroke-linejoin:round;stroke-miterlimit:2;">
    <g transform="matrix(2.2865,0,0,2.2865,-823.36,-514.6)">
        <g transform="matrix(1.4772,0,0,1.4772,-530.744,393.592)">
            <text x="640.176px" y="108.823px" style="font-family:'Menlo-Regular', 'Menlo', monospace;font-size:288px;fill:rgb(241,95,50);">0<tspan x="772.365px " y="108.823px ">1</tspan></text>
        </g>
        <g transform="matrix(1,0,0,1,-121.925,181.162)">
            <path d="M751.677,163.83L696.669,163.83L696.669,108.822L675.645,108.822L675.645,163.83L600.477,163.83L600.477,110.838L579.165,110.838L579.165,163.83L525.021,163.83L525.021,183.99L579.165,183.99L579.165,249.654L600.477,249.654L600.477,183.99L675.645,183.99L675.645,203.862C675.645,254.838 650.589,287.382 595.005,305.814L606.813,325.398C669.021,302.646 696.669,263.19 696.669,203.862L696.669,183.99L751.677,183.99L751.677,163.83Z" style="fill:rgb(35,31,32);fill-rule:nonzero;stroke:black;stroke-width:1.75px;"/>
            <path d="M993.309,174.774L903.453,174.774L903.453,108.534L882.141,108.534L882.141,174.774L781.341,174.774L781.341,194.646L881.277,194.646L881.277,201.846C881.277,250.23 860.253,279.606 810.717,301.494L825.117,321.366C878.397,294.294 902.301,258.006 902.301,201.846L902.301,194.646L993.309,194.646L993.309,174.774Z" style="fill:rgb(35,31,32);fill-rule:nonzero;stroke:black;stroke-width:1.75px;"/>
        </g>
    </g>
</svg>
