<?xml version="1.0" encoding="UTF-8" standalone="no"?>
<!DOCTYPE svg PUBLIC "-//W3C//DTD SVG 1.1//EN" "http://www.w3.org/Graphics/SVG/1.1/DTD/svg11.dtd">
<svg width="100%" height="100%" viewBox="0 0 1280 800" version="1.1" xmlns="http://www.w3.org/2000/svg" xmlns:xlink="http://www.w3.org/1999/xlink" xml:space="preserve" xmlns:serif="http://www.serif.com/" style="fill-rule:evenodd;clip-rule:evenodd;stroke-linejoin:round;stroke-miterlimit:2;">
    <g transform="matrix(2.2865,0,0,2.2865,-823.36,-514.6)">
        <g transform="matrix(1.4772,0,0,1.4772,-530.744,393.592)">
            <g transform="matrix(288,0,0,288,640.176,108.823)">
                <path d="M0.301,-0.74C0.379,-0.74 0.437,-0.708 0.477,-0.645C0.517,-0.581 0.537,-0.487 0.537,-0.363C0.537,-0.238 0.517,-0.145 0.477,-0.081C0.437,-0.018 0.379,0.014 0.301,0.014C0.223,0.014 0.164,-0.018 0.125,-0.081C0.085,-0.145 0.065,-0.238 0.065,-0.363C0.065,-0.487 0.085,-0.581 0.125,-0.645C0.164,-0.708 0.223,-0.74 0.301,-0.74ZM0.301,-0.064C0.347,-0.064 0.381,-0.089 0.404,-0.138C0.427,-0.187 0.438,-0.262 0.438,-0.363C0.438,-0.417 0.435,-0.465 0.428,-0.508L0.196,-0.145C0.22,-0.091 0.255,-0.064 0.301,-0.064ZM0.301,-0.662C0.255,-0.662 0.221,-0.637 0.198,-0.588C0.175,-0.539 0.164,-0.464 0.164,-0.363C0.164,-0.317 0.167,-0.274 0.173,-0.234L0.401,-0.597C0.376,-0.64 0.343,-0.662 0.301,-0.662Z" style="fill:rgb(241,95,50);fill-rule:nonzero;"/>
            </g>
            <g transform="matrix(288,0,0,288,772.365,108.823)">
                <path d="M0.132,-0.083L0.285,-0.083L0.285,-0.633L0.102,-0.545L0.102,-0.64L0.284,-0.727L0.383,-0.727L0.383,-0.083L0.534,-0.083L0.534,0L0.132,0L0.132,-0.083Z" style="fill:rgb(241,95,50);fill-rule:nonzero;"/>
            </g>
        </g>
        <g transform="matrix(1,0,0,1,-121.925,181.162)">
            <path d="M573.981,321.942C563.613,321.942 554.157,319.302 545.613,314.022C537.069,308.742 530.253,301.734 525.165,292.998C520.077,284.262 517.533,274.614 517.533,264.054L517.533,250.806C517.533,249.846 518.013,249.366 518.973,249.366L551.229,249.366C551.997,249.366 552.381,249.846 552.381,250.806L552.381,264.054C552.381,270.39 554.493,275.814 558.717,280.326C562.941,284.838 568.029,287.094 573.981,287.094C579.933,287.094 585.021,284.79 589.245,280.182C593.469,275.574 595.581,270.198 595.581,264.054C595.581,256.95 590.973,250.806 581.757,245.622C578.685,243.894 573.885,241.206 567.357,237.558C560.829,233.91 554.685,230.454 548.925,227.19C538.365,221.046 530.541,213.318 525.453,204.006C520.365,194.694 517.821,184.182 517.821,172.47C517.821,161.718 520.413,152.07 525.597,143.526C530.781,134.982 537.645,128.214 546.189,123.222C554.733,118.23 563.997,115.734 573.981,115.734C584.157,115.734 593.517,118.278 602.061,123.366C610.605,128.454 617.421,135.27 622.509,143.814C627.597,152.358 630.141,161.91 630.141,172.47L630.141,196.086C630.141,196.854 629.757,197.238 628.989,197.238L596.733,197.238C595.965,197.238 595.581,196.854 595.581,196.086L595.293,172.47C595.293,165.75 593.181,160.278 588.957,156.054C584.733,151.83 579.741,149.718 573.981,149.718C568.029,149.718 562.941,151.974 558.717,156.486C554.493,160.998 552.381,166.326 552.381,172.47C552.381,178.806 553.725,184.086 556.413,188.31C559.101,192.534 563.997,196.566 571.101,200.406C572.061,200.982 573.933,201.99 576.717,203.43C579.501,204.87 582.525,206.502 585.789,208.326C589.053,210.15 591.981,211.734 594.573,213.078C597.165,214.422 598.749,215.286 599.325,215.67C608.925,221.046 616.509,227.622 622.077,235.398C627.645,243.174 630.429,252.726 630.429,264.054C630.429,274.998 627.885,284.838 622.797,293.574C617.709,302.31 610.893,309.222 602.349,314.31C593.805,319.398 584.349,321.942 573.981,321.942Z" style="fill:rgb(35,31,32);fill-rule:nonzero;stroke:black;stroke-width:1.75px;"/>
            <path d="M635.037,317.622L670.749,119.766C670.941,118.998 671.421,118.614 672.189,118.614L713.949,118.614C714.717,118.614 715.197,118.998 715.389,119.766L749.661,317.622C749.853,318.582 749.469,319.062 748.509,319.062L716.541,319.062C715.773,319.062 715.293,318.582 715.101,317.622L711.933,296.598L672.765,296.598L669.597,317.622C669.405,318.582 668.925,319.062 668.157,319.062L636.189,319.062C635.421,319.062 635.037,318.582 635.037,317.622ZM678.525,265.782L706.173,265.782L694.365,184.854L692.637,174.198L691.485,184.854L678.525,265.782Z" style="fill:rgb(35,31,32);fill-rule:nonzero;stroke:black;stroke-width:1.75px;"/>
            <path d="M770.397,319.062C768.861,319.062 768.093,318.39 768.093,317.046L767.805,120.918C767.805,119.382 768.573,118.614 770.109,118.614L796.029,118.614L844.701,232.086L843.261,120.918C843.261,119.382 844.125,118.614 845.853,118.614L874.365,118.614C875.517,118.614 876.093,119.382 876.093,120.918L876.381,317.334C876.381,318.486 875.901,319.062 874.941,319.062L849.597,319.062L799.773,213.078L801.789,316.758C801.789,318.294 800.925,319.062 799.197,319.062L770.397,319.062Z" style="fill:rgb(35,31,32);fill-rule:nonzero;stroke:black;stroke-width:1.75px;"/>
            <path d="M891.645,317.622L927.357,119.766C927.549,118.998 928.029,118.614 928.797,118.614L970.557,118.614C971.325,118.614 971.805,118.998 971.997,119.766L1006.27,317.622C1006.46,318.582 1006.08,319.062 1005.12,319.062L973.149,319.062C972.381,319.062 971.901,318.582 971.709,317.622L968.541,296.598L929.373,296.598L926.205,317.622C926.013,318.582 925.533,319.062 924.765,319.062L892.797,319.062C892.029,319.062 891.645,318.582 891.645,317.622ZM935.133,265.782L962.781,265.782L950.973,184.854L949.245,174.198L948.093,184.854L935.133,265.782Z" style="fill:rgb(35,31,32);fill-rule:nonzero;stroke:black;stroke-width:1.75px;"/>
        </g>
    </g>
</svg>
